<?xml version="1.0" encoding="UTF-8"?>
<svg width="910px" height="573px" viewBox="0 0 910 573" version="1.1" xmlns="http://www.w3.org/2000/svg" xmlns:xlink="http://www.w3.org/1999/xlink">
    <title>Group</title>
    <g id="Page-1" stroke="none" stroke-width="1" fill="none" fill-rule="evenodd">
        <g id="Group" transform="translate(0.454393, 0.229942)">
            <path d="M700.240112,0.00025768388 C815.583563,0.00025768388 909.087907,94.2777266 909.087907,210.574879 C909.087907,326.872031 815.583563,421.1495 700.240112,421.1495 C587.695046,421.1495 495.942253,331.391138 491.556403,218.999546 L533.367063,218.997404 C537.719485,308.122162 610.766467,379.034576 700.240112,379.034576 C792.514872,379.034576 867.31835,303.612601 867.31835,210.574879 C867.31835,117.537157 792.514872,42.1151819 700.240112,42.1151819 C649.427881,42.1151819 603.913452,64.9853057 573.269963,101.073259 L521.815809,101.073087 C558.483559,40.4636333 624.675221,0.00025768388 700.240112,0.00025768388 Z" id="Path" fill="#68ADE7" fill-rule="nonzero"></path>
            <path d="M208.806892,0 C324.150346,0 417.654689,94.2774689 417.654689,210.574621 C417.654689,326.871774 324.150346,421.149242 208.806892,421.149242 C94.858442,421.149242 2.22403634,329.13843 2.84217094e-14,214.784443 L41.7798235,214.785142 C43.996119,305.877259 117.928192,379.034318 208.806892,379.034318 C301.081655,379.034318 375.88513,303.612343 375.88513,210.574621 C375.88513,117.5369 301.081655,42.1149242 208.806892,42.1149242 C159.999907,42.1149242 116.080829,63.2155824 85.5335616,96.8628486 L32.9992734,96.8602358 C70.1466855,38.5957481 135.006491,0 208.806892,0 Z" id="Path" fill="#68ADE7" fill-rule="nonzero" transform="translate(208.827345, 210.574621) rotate(-180.000000) translate(-208.827345, -210.574621) "></path>
            <line x1="451.776196" y1="379.830157" x2="451.534204" y2="48.3180108" id="Path" stroke="#68ADE7" stroke-width="41.8561883" transform="translate(451.655200, 214.074084) rotate(-139.997819) translate(-451.655200, -214.074084) "></line>
            <line x1="392.240385" y1="185.305706" x2="207.358824" y2="185.305706" id="Path" stroke="#68ADE7" stroke-width="41.85728" stroke-linecap="round"></line>
            <line x1="512.276968" y1="223.209198" x2="512.276968" y2="551.705607" id="Path" stroke="#68ADE7" stroke-width="41.85728" stroke-linecap="round"></line>
        </g>
    </g>
</svg>