<?xml version="1.0" encoding="UTF-8"?>
<svg width="250px" height="74.9798094px" viewBox="0 0 250 74.9798094" version="1.1" xmlns="http://www.w3.org/2000/svg" xmlns:xlink="http://www.w3.org/1999/xlink">
    <title>spotify_logo</title>
    <g id="Page-1" stroke="none" stroke-width="1" fill="none" fill-rule="evenodd">
        <g id="spotify_logo" fill="#000000" fill-rule="nonzero">
            <path d="M37.4905762,0 C16.7855422,0 0,16.7850946 0,37.4901285 C0,58.1960579 16.7855422,74.9798094 37.4905762,74.9798094 C58.1978486,74.9798094 74.9816001,58.1960579 74.9816001,37.4901285 C74.9816001,16.7864376 58.1978486,0.00179074436 37.4901285,0.00179074436 L37.4905762,0 Z M54.6835128,54.0715259 C54.0119837,55.1728337 52.5704345,55.5220288 51.4691267,54.8460228 C42.6667228,49.4693129 31.5855967,48.2516067 18.5355472,51.2331961 C17.2779969,51.5197152 16.0244759,50.7317877 15.7379568,49.4737898 C15.4500946,48.2157919 16.2348884,46.9622708 17.4955724,46.6757517 C31.7767586,43.4130155 44.0267931,44.8178544 53.9090159,50.8571398 C55.0103236,51.5331458 55.3595188,52.9702181 54.6835128,54.0715259 L54.6835128,54.0715259 Z M59.2722952,43.8633877 C58.4261685,45.2386794 56.6264704,45.6729349 55.2520741,44.8268082 C45.1746603,38.6326234 29.8132075,36.8387453 17.8935653,40.4569442 C16.3477053,40.9238808 14.7149941,40.0526837 14.2458191,38.5095097 C13.7802255,36.9636497 14.6518703,35.3340723 16.1950443,34.8640019 C29.8105213,30.7327547 46.7370847,32.7339115 58.3097701,39.845405 C59.6841664,40.6915317 60.1184219,42.4912298 59.2722952,43.8638354 L59.2722952,43.8633877 Z M59.666259,33.2335292 C47.5832114,26.0566735 27.6477498,25.3967842 16.111327,28.8981371 C14.258802,29.4599831 12.2997276,28.4141884 11.7383293,26.5616634 C11.1769309,24.708243 12.2218302,22.7505117 14.0756983,22.1873226 C27.3187006,18.1671015 49.333664,18.9438369 63.2450616,27.2023022 C64.9149307,28.1912408 65.4611077,30.3432678 64.4717215,32.007317 C63.4868121,33.6736046 61.3289651,34.2229154 59.6680497,33.2335292 L59.666259,33.2335292 Z M101.999456,34.6088208 C95.5259148,33.0651992 94.3753615,31.9817989 94.3753615,29.7053151 C94.3753615,27.5546311 96.3989026,26.107262 99.41183,26.107262 C102.330743,26.107262 105.222795,27.2063314 108.258107,29.4689369 C108.347644,29.5374328 108.464043,29.5647417 108.575964,29.5468342 C108.692363,29.5298222 108.790854,29.4675938 108.858007,29.3740274 L112.01867,24.9186554 C112.148499,24.7351041 112.112684,24.4821615 111.938087,24.3420358 C108.32526,21.4441637 104.26027,20.0352956 99.5058441,20.0352956 C92.5174642,20.0352956 87.633209,24.2296665 87.633209,30.2308986 C87.633209,36.6663861 91.8459351,38.9451083 99.1253109,40.704067 C105.31681,42.1308425 106.364395,43.3261644 106.364395,45.4625224 C106.364395,47.8307818 104.251317,49.3036691 100.848902,49.3036691 C97.0704318,49.3036691 93.9858746,48.0277637 90.5386917,45.0461743 C90.4536314,44.9700677 90.337233,44.9387297 90.2297883,44.9432065 C90.1133899,44.9521603 90.0104221,45.0058826 89.9387924,45.090943 L86.3931185,49.3081459 C86.2453821,49.4872204 86.2632896,49.7468783 86.4334103,49.8990916 C90.4446776,53.4805803 95.3781783,55.3698156 100.705643,55.3698156 C108.235723,55.3698156 113.102154,51.2555804 113.102154,44.8850074 C113.115501,39.5096405 109.896638,36.532528 102.012886,34.6146408 L101.999456,34.6088208 Z M130.141003,28.2248172 C126.877372,28.2248172 124.200209,29.5105717 121.98864,32.1452043 L121.98864,29.1797316 C121.98864,28.9455918 121.800611,28.7548775 121.567815,28.7548775 L115.77028,28.7548775 C115.537483,28.7548775 115.349455,28.9455918 115.349455,29.1797316 L115.349455,62.1298755 C115.349455,62.3626723 115.537483,62.5551773 115.77028,62.5551773 L121.567815,62.5551773 C121.800611,62.5551773 121.98864,62.3626723 121.98864,62.1298755 L121.98864,51.7301277 C124.200209,54.2058317 126.877372,55.419061 130.141003,55.419061 C136.20715,55.419061 142.349423,50.7496951 142.349423,41.8232822 C142.358357,32.8950785 136.216103,28.2243695 130.14548,28.2243695 L130.141003,28.2248172 Z M135.60725,41.8232822 C135.60725,46.3668483 132.809212,49.5409427 128.797945,49.5409427 C124.835923,49.5409427 121.84538,46.2235888 121.84538,41.8232822 C121.84538,37.4225279 124.835923,34.1060694 128.797945,34.1060694 C132.742059,34.1056217 135.60725,37.3504505 135.60725,41.8228345 L135.60725,41.8232822 Z M158.085569,28.2248172 C150.273447,28.2248172 144.153578,34.2399275 144.153578,41.9204301 C144.153578,49.5185584 150.233155,55.4683065 157.991555,55.4683065 C165.830538,55.4683065 171.968315,49.4737898 171.968315,41.8232822 C171.968315,34.1987404 165.87083,28.2257126 158.085569,28.2257126 L158.085569,28.2248172 L158.085569,28.2248172 Z M158.085569,49.5857113 C153.931042,49.5857113 150.797239,46.2459731 150.797239,41.8210438 C150.797239,37.3759686 153.823597,34.1503903 157.991555,34.1503903 C162.172943,34.1503903 165.324653,37.4887855 165.324653,41.9181916 C165.324653,46.3623714 162.280388,49.5857113 158.085569,49.5857113 L158.085569,49.5857113 Z M188.649098,28.7548775 L182.269571,28.7548775 L182.269571,22.233882 C182.269571,22.0001898 182.081543,21.8094755 181.848747,21.8094755 L176.051212,21.8094755 C175.818415,21.8094755 175.62591,22.0001898 175.62591,22.233882 L175.62591,28.7548775 L172.841302,28.7548775 C172.608506,28.7548775 172.420478,28.9455918 172.420478,29.1797316 L172.420478,34.1611348 C172.420478,34.3948269 172.608506,34.5859889 172.841302,34.5859889 L175.62591,34.5859889 L175.62591,47.4771098 C175.62591,52.683699 178.218012,55.325047 183.335064,55.325047 C185.412328,55.325047 187.135919,54.8952683 188.76102,53.973035 C188.895326,53.9014052 188.975909,53.7581456 188.975909,53.6059324 L188.975909,48.8604598 C188.975909,48.7172003 188.899802,48.5784176 188.77445,48.502311 C188.649098,48.4217275 188.492408,48.4172506 188.362579,48.4844035 C187.247841,49.0440111 186.168917,49.3036691 184.960165,49.3036691 C183.102268,49.3036691 182.269571,48.4575423 182.269571,46.568307 L182.269571,34.5882273 L188.649098,34.5882273 C188.881895,34.5882273 189.069923,34.397513 189.069923,34.1633732 L189.069923,29.1824178 C189.078877,28.9482779 188.890849,28.7575637 188.653575,28.7575637 L188.649098,28.7548775 L188.649098,28.7548775 Z M210.872236,28.7803956 L210.872236,27.9794852 C210.872236,25.6233133 211.776562,24.5725941 213.800103,24.5725941 C215.008855,24.5725941 215.980334,24.8125538 217.068211,25.1751796 C217.202517,25.2172621 217.3413,25.1962208 217.448744,25.116085 C217.560666,25.0359492 217.623342,24.9074633 217.623342,24.7713667 L217.623342,19.8871115 C217.623342,19.7004264 217.506944,19.5352302 217.323392,19.4801648 C216.177316,19.1385803 214.708906,18.7880421 212.50629,18.7880421 C207.156441,18.7880421 204.322588,21.8027603 204.322588,27.5031472 L204.322588,28.7298071 L201.537981,28.7298071 C201.305184,28.7298071 201.112679,28.9205214 201.112679,29.1542135 L201.112679,34.1611348 C201.112679,34.3948269 201.305184,34.5859889 201.537981,34.5859889 L204.322588,34.5859889 L204.322588,54.4654897 C204.322588,54.7027633 204.515093,54.8907915 204.74789,54.8907915 L210.540948,54.8907915 C210.778222,54.8907915 210.96625,54.7027633 210.96625,54.4654897 L210.96625,34.5873319 L216.378775,34.5873319 L224.669921,54.4654897 C223.72978,56.5517068 222.80307,56.9680549 221.540595,56.9680549 C220.519871,56.9680549 219.440948,56.6636284 218.344117,56.0592521 C218.241149,56.0055298 218.115797,55.9965761 218.008352,56.0279141 C217.896431,56.0682059 217.802416,56.1487894 217.757648,56.256234 L215.792306,60.5674511 C215.698292,60.7733867 215.778875,61.0106603 215.975857,61.118105 C218.026259,62.2283665 219.875203,62.7029137 222.162879,62.7029137 C226.442758,62.7029137 228.811017,60.7062338 230.892758,55.3429544 L240.947787,29.3605968 C241.00151,29.2298725 240.983602,29.0821361 240.903019,28.9661854 C240.826912,28.85113 240.697083,28.7817387 240.5583,28.7817387 L234.523492,28.7817387 C234.339941,28.7817387 234.178774,28.896794 234.120574,29.0664671 L227.93803,46.7205203 L221.169016,29.0548272 C221.10634,28.8905264 220.94965,28.7817387 220.775052,28.7817387 L210.872236,28.7817387 L210.872236,28.7803956 L210.872236,28.7803956 Z M197.98783,28.7548775 L192.190295,28.7548775 C191.957498,28.7548775 191.764993,28.9455918 191.764993,29.1797316 L191.764993,54.4654897 C191.764993,54.7027633 191.957498,54.8907915 192.190295,54.8907915 L197.98783,54.8907915 C198.220627,54.8907915 198.413132,54.7027633 198.413132,54.4654897 L198.413132,29.1815224 C198.413132,28.9473826 198.225104,28.7566683 197.98783,28.7566683 L197.98783,28.7548775 Z M195.122639,17.240839 C192.826009,17.240839 190.963635,19.0996316 190.963635,21.3958136 C190.963635,23.6933386 192.826009,25.5543697 195.122639,25.5543697 C197.419269,25.5543697 199.277166,23.6933386 199.277166,21.3958136 C199.277166,19.1000793 197.414792,17.240839 195.122639,17.240839 Z M245.899195,36.8853046 C243.607043,36.8853046 241.820775,35.0430764 241.820775,32.805989 C241.820775,30.5689016 243.629427,28.7056321 245.92158,28.7056321 C248.213733,28.7056321 250,30.5474126 250,32.7827093 C250,35.0197967 248.191348,36.8853046 245.899195,36.8853046 Z M245.92158,29.1112357 C243.830886,29.1112357 242.250554,30.7721511 242.250554,32.805989 C242.250554,34.8389315 243.821932,36.4774626 245.899195,36.4774626 C247.989889,36.4774626 249.570221,34.8178903 249.570221,32.7827093 C249.570221,30.7497668 247.998843,29.1112357 245.92158,29.1112357 L245.92158,29.1112357 Z M246.825906,33.2021912 L247.980936,34.8174426 L247.00498,34.8174426 L245.966348,33.3356016 L245.075453,33.3356016 L245.075453,34.8174426 L244.260664,34.8174426 L244.260664,30.5357728 L246.167807,30.5357728 C247.166147,30.5357728 247.819769,31.0447919 247.819769,31.9016631 C247.824246,32.6036349 247.416851,33.0325181 246.830382,33.2021912 L246.825906,33.2021912 Z M246.136469,31.2704257 L245.075453,31.2704257 L245.075453,32.6246761 L246.136469,32.6246761 C246.664739,32.6246761 246.982596,32.3654659 246.982596,31.9468794 C246.982596,31.5063562 246.664739,31.2704257 246.136469,31.2704257 L246.136469,31.2704257 Z" id="Shape"></path>
        </g>
    </g>
</svg>