<?xml version="1.0" encoding="UTF-8"?>
<svg width="74.9816001px" height="74.9798094px" viewBox="0 0 74.9816001 74.9798094" version="1.1" xmlns="http://www.w3.org/2000/svg" xmlns:xlink="http://www.w3.org/1999/xlink">
    <title>spotify_logo</title>
    <g id="Page-1" stroke="none" stroke-width="1" fill="none" fill-rule="evenodd">
        <g id="spotify_logo" fill="#000000" fill-rule="nonzero">
            <path d="M37.4905762,0 C16.7855422,0 0,16.7850946 0,37.4901285 C0,58.1960579 16.7855422,74.9798094 37.4905762,74.9798094 C58.1978486,74.9798094 74.9816001,58.1960579 74.9816001,37.4901285 C74.9816001,16.7864376 58.1978486,0.00179074436 37.4901285,0.00179074436 L37.4905762,0 Z M54.6835128,54.0715259 C54.0119837,55.1728337 52.5704345,55.5220288 51.4691267,54.8460228 C42.6667228,49.4693129 31.5855967,48.2516067 18.5355472,51.2331961 C17.2779969,51.5197152 16.0244759,50.7317877 15.7379568,49.4737898 C15.4500946,48.2157919 16.2348884,46.9622708 17.4955724,46.6757517 C31.7767586,43.4130155 44.0267931,44.8178544 53.9090159,50.8571398 C55.0103236,51.5331458 55.3595188,52.9702181 54.6835128,54.0715259 L54.6835128,54.0715259 Z M59.2722952,43.8633877 C58.4261685,45.2386794 56.6264704,45.6729349 55.2520741,44.8268082 C45.1746603,38.6326234 29.8132075,36.8387453 17.8935653,40.4569442 C16.3477053,40.9238808 14.7149941,40.0526837 14.2458191,38.5095097 C13.7802255,36.9636497 14.6518703,35.3340723 16.1950443,34.8640019 C29.8105213,30.7327547 46.7370847,32.7339115 58.3097701,39.845405 C59.6841664,40.6915317 60.1184219,42.4912298 59.2722952,43.8638354 L59.2722952,43.8633877 Z M59.666259,33.2335292 C47.5832114,26.0566735 27.6477498,25.3967842 16.111327,28.8981371 C14.258802,29.4599831 12.2997276,28.4141884 11.7383293,26.5616634 C11.1769309,24.708243 12.2218302,22.7505117 14.0756983,22.1873226 C27.3187006,18.1671015 49.333664,18.9438369 63.2450616,27.2023022 C64.9149307,28.1912408 65.4611077,30.3432678 64.4717215,32.007317 C63.4868121,33.6736046 61.3289651,34.2229154 59.6680497,33.2335292 L59.666259,33.2335292 Z" id="Shape"></path>
        </g>
    </g>
</svg>