<?xml version="1.0" encoding="UTF-8"?>
<svg width="139px" height="88px" viewBox="0 0 139 88" version="1.1" xmlns="http://www.w3.org/2000/svg" xmlns:xlink="http://www.w3.org/1999/xlink">
    <title>EP_logo</title>
    <g id="Page-1" stroke="none" stroke-width="1" fill="none" fill-rule="evenodd">
        <g id="Artboard" transform="translate(-110.000000, -38.000000)">
            <g id="Menu-Bar" transform="translate(110.000000, 0.000000)">
                <g id="EP_logo" transform="translate(0.000000, 38.000000)">
                    <path d="M107.067063,5.69774835e-14 C124.703137,5.69774835e-14 139,14.4150743 139,32.1969697 C139,49.9788651 124.703137,64.3939394 107.067063,64.3939394 C89.8588635,64.3939394 75.8298135,50.6698389 75.1592148,33.4851057 L81.5520866,33.4847782 C82.2175741,47.1120003 93.3864959,57.9545455 107.067063,57.9545455 C121.175922,57.9545455 132.613413,46.422486 132.613413,32.1969697 C132.613413,17.9714534 121.175922,6.43939394 107.067063,6.43939394 C99.2978463,6.43939394 92.3386663,9.93624783 87.6532608,15.4541147 L79.7858937,15.4540884 C85.3924119,6.18687129 95.5131516,5.69774835e-14 107.067063,5.69774835e-14 Z" id="Combined-Shape" fill="#68ADE7" fill-rule="nonzero"></path>
                    <path d="M31.9266789,0 C49.5627533,0 63.8596163,14.4150743 63.8596163,32.1969697 C63.8596163,49.9788651 49.5627533,64.3939394 31.9266789,64.3939394 C14.5039013,64.3939394 0.34005223,50.3254381 -4.08901607e-06,32.8406536 L6.38815277,32.8407606 C6.72702551,46.7687929 18.0312782,57.9545455 31.9266789,57.9545455 C46.0355384,57.9545455 57.4730288,46.422486 57.4730288,32.1969697 C57.4730288,17.9714534 46.0355384,6.43939394 31.9266789,6.43939394 C24.4640653,6.43939394 17.7488153,9.66569561 13.0781222,14.8103802 L5.04560207,14.8099807 C10.7254608,5.90131007 20.642559,0 31.9266789,0 Z" id="Combined-Shape" fill="#68ADE7" fill-rule="nonzero" transform="translate(31.929808, 32.196970) scale(-1, -1) translate(-31.929808, -32.196970) "></path>
                    <line x1="69.0767538" y1="58.0767676" x2="69.0397521" y2="7.38706504" id="Path-4" stroke="#68ADE7" stroke-width="6.4" transform="translate(69.058253, 32.731916) rotate(220.000000) translate(-69.058253, -32.731916) "></line>
                    <line x1="59.9738177" y1="28.3333333" x2="31.7053304" y2="28.3333333" id="Path-5" stroke="#68ADE7" stroke-width="6.4" stroke-linecap="round"></line>
                    <line x1="78.327419" y1="34.1287879" x2="78.327419" y2="84.3560606" id="Path-6" stroke="#68ADE7" stroke-width="6.4" stroke-linecap="round"></line>
                </g>
            </g>
        </g>
    </g>
</svg>