<?xml version="1.0" encoding="UTF-8"?>
<svg width="329.48px" height="20.34px" viewBox="0 0 329.48 20.34" version="1.1" xmlns="http://www.w3.org/2000/svg" xmlns:xlink="http://www.w3.org/1999/xlink">
    <title>eric portela | эрик</title>
    <g id="Page-1" stroke="none" stroke-width="1" fill="none" fill-rule="evenodd">
        <g id="eric-portela-|-эрик" transform="translate(-0, 0)" fill="#FFFFFF" fill-rule="nonzero">
            <path d="M7.74,9.92 L1.8,9.92 C1.82666667,9.52 1.91333333,9.14333333 2.06,8.79 C2.20666667,8.43666667 2.40666667,8.12666667 2.66,7.86 C2.91333333,7.59333333 3.21666667,7.38333333 3.57,7.23 C3.92333333,7.07666667 4.32,7 4.76,7 C5.18666667,7 5.57666667,7.07666667 5.93,7.23 C6.28333333,7.38333333 6.59,7.59 6.85,7.85 C7.11,8.11 7.31666667,8.42 7.47,8.78 C7.62333333,9.14 7.71333333,9.52 7.74,9.92 Z M9.38,12.8 L7.7,12.8 C7.55333333,13.48 7.25,13.9866667 6.79,14.32 C6.33,14.6533333 5.74,14.82 5.02,14.82 C4.46,14.82 3.97333333,14.7266667 3.56,14.54 C3.14666667,14.3533333 2.80666667,14.1033333 2.54,13.79 C2.27333333,13.4766667 2.08,13.1166667 1.96,12.71 C1.84,12.3033333 1.78666667,11.8733333 1.8,11.42 L9.54,11.42 C9.56666667,10.7933333 9.51,10.1333333 9.37,9.44 C9.23,8.74666667 8.97666667,8.10666667 8.61,7.52 C8.24333333,6.93333333 7.75666667,6.45 7.15,6.07 C6.54333333,5.69 5.78,5.5 4.86,5.5 C4.15333333,5.5 3.50333333,5.63333333 2.91,5.9 C2.31666667,6.16666667 1.80333333,6.54 1.37,7.02 C0.936666667,7.5 0.6,8.06666667 0.36,8.72 C0.12,9.37333333 1.8189894e-12,10.0933333 1.8189894e-12,10.88 C0.0266666667,11.6666667 0.143333333,12.3933333 0.35,13.06 C0.556666667,13.7266667 0.866666667,14.3 1.28,14.78 C1.69333333,15.26 2.20333333,15.6333333 2.81,15.9 C3.41666667,16.1666667 4.13333333,16.3 4.96,16.3 C6.13333333,16.3 7.10666667,16.0066667 7.88,15.42 C8.65333333,14.8333333 9.15333333,13.96 9.38,12.8 Z" id="Shape"></path>
            <path d="M11.95,5.74 L11.95,16.08 L13.65,16.08 L13.65,11.48 C13.65,10.8133333 13.7166667,10.2233333 13.85,9.71 C13.9833333,9.19666667 14.1966667,8.76 14.49,8.4 C14.7833333,8.04 15.17,7.76666667 15.65,7.58 C16.13,7.39333333 16.71,7.3 17.39,7.3 L17.39,5.5 C16.47,5.47333333 15.71,5.66 15.11,6.06 C14.51,6.46 14.0033333,7.08 13.59,7.92 L13.55,7.92 L13.55,5.74 L11.95,5.74 Z" id="Path"></path>
            <path d="M21.18,3.88 L21.18,1.8 L19.48,1.8 L19.48,3.88 L21.18,3.88 Z M19.48,5.74 L19.48,16.08 L21.18,16.08 L21.18,5.74 L19.48,5.74 Z" id="Shape"></path>
            <path d="M31.55,9.06 L33.31,9.06 C33.2433333,8.44666667 33.0833333,7.91666667 32.83,7.47 C32.5766667,7.02333333 32.2533333,6.65333333 31.86,6.36 C31.4666667,6.06666667 31.0133333,5.85 30.5,5.71 C29.9866667,5.57 29.4366667,5.5 28.85,5.5 C28.0366667,5.5 27.3233333,5.64333333 26.71,5.93 C26.0966667,6.21666667 25.5866667,6.61 25.18,7.11 C24.7733333,7.61 24.47,8.19666667 24.27,8.87 C24.07,9.54333333 23.97,10.2666667 23.97,11.04 C23.97,11.8133333 24.0733333,12.5233333 24.28,13.17 C24.4866667,13.8166667 24.7933333,14.3733333 25.2,14.84 C25.6066667,15.3066667 26.1133333,15.6666667 26.72,15.92 C27.3266667,16.1733333 28.0233333,16.3 28.81,16.3 C30.13,16.3 31.1733333,15.9533333 31.94,15.26 C32.7066667,14.5666667 33.1833333,13.58 33.37,12.3 L31.63,12.3 C31.5233333,13.1 31.2333333,13.72 30.76,14.16 C30.2866667,14.6 29.63,14.82 28.79,14.82 C28.2566667,14.82 27.7966667,14.7133333 27.41,14.5 C27.0233333,14.2866667 26.71,14.0033333 26.47,13.65 C26.23,13.2966667 26.0533333,12.8933333 25.94,12.44 C25.8266667,11.9866667 25.77,11.52 25.77,11.04 C25.77,10.52 25.8233333,10.0166667 25.93,9.53 C26.0366667,9.04333333 26.2133333,8.61333333 26.46,8.24 C26.7066667,7.86666667 27.0366667,7.56666667 27.45,7.34 C27.8633333,7.11333333 28.3766667,7 28.99,7 C29.71,7 30.2833333,7.18 30.71,7.54 C31.1366667,7.9 31.4166667,8.40666667 31.55,9.06 Z" id="Path"></path>
            <path d="M42.31,5.74 L42.31,20.02 L44.01,20.02 L44.01,14.7 L44.05,14.7 C44.2366667,15.0066667 44.4666667,15.2633333 44.74,15.47 C45.0133333,15.6766667 45.3033333,15.84 45.61,15.96 C45.9166667,16.08 46.2266667,16.1666667 46.54,16.22 C46.8533333,16.2733333 47.1366667,16.3 47.39,16.3 C48.1766667,16.3 48.8666667,16.16 49.46,15.88 C50.0533333,15.6 50.5466667,15.2166667 50.94,14.73 C51.3333333,14.2433333 51.6266667,13.6733333 51.82,13.02 C52.0133333,12.3666667 52.11,11.6733333 52.11,10.94 C52.11,10.2066667 52.01,9.51333333 51.81,8.86 C51.61,8.20666667 51.3133333,7.63 50.92,7.13 C50.5266667,6.63 50.0333333,6.23333333 49.44,5.94 C48.8466667,5.64666667 48.15,5.5 47.35,5.5 C46.63,5.5 45.97,5.63 45.37,5.89 C44.77,6.15 44.33,6.56666667 44.05,7.14 L44.01,7.14 L44.01,5.74 L42.31,5.74 Z M50.31,10.82 C50.31,11.3266667 50.2566667,11.82 50.15,12.3 C50.0433333,12.78 49.87,13.2066667 49.63,13.58 C49.39,13.9533333 49.0733333,14.2533333 48.68,14.48 C48.2866667,14.7066667 47.7966667,14.82 47.21,14.82 C46.6233333,14.82 46.1233333,14.71 45.71,14.49 C45.2966667,14.27 44.96,13.98 44.7,13.62 C44.44,13.26 44.25,12.8433333 44.13,12.37 C44.01,11.8966667 43.95,11.4066667 43.95,10.9 C43.95,10.42 44.0066667,9.94666667 44.12,9.48 C44.2333333,9.01333333 44.4166667,8.59666667 44.67,8.23 C44.9233333,7.86333333 45.25,7.56666667 45.65,7.34 C46.05,7.11333333 46.5366667,7 47.11,7 C47.6566667,7 48.1333333,7.10666667 48.54,7.32 C48.9466667,7.53333333 49.28,7.82 49.54,8.18 C49.8,8.54 49.9933333,8.95 50.12,9.41 C50.2466667,9.87 50.31,10.34 50.31,10.82 Z" id="Shape"></path>
            <path d="M56.06,10.92 C56.06,10.2933333 56.1433333,9.73666667 56.31,9.25 C56.4766667,8.76333333 56.7066667,8.35333333 57,8.02 C57.2933333,7.68666667 57.6366667,7.43333333 58.03,7.26 C58.4233333,7.08666667 58.84,7 59.28,7 C59.72,7 60.1366667,7.08666667 60.53,7.26 C60.9233333,7.43333333 61.2666667,7.68666667 61.56,8.02 C61.8533333,8.35333333 62.0833333,8.76333333 62.25,9.25 C62.4166667,9.73666667 62.5,10.2933333 62.5,10.92 C62.5,11.5466667 62.4166667,12.1033333 62.25,12.59 C62.0833333,13.0766667 61.8533333,13.4833333 61.56,13.81 C61.2666667,14.1366667 60.9233333,14.3866667 60.53,14.56 C60.1366667,14.7333333 59.72,14.82 59.28,14.82 C58.84,14.82 58.4233333,14.7333333 58.03,14.56 C57.6366667,14.3866667 57.2933333,14.1366667 57,13.81 C56.7066667,13.4833333 56.4766667,13.0766667 56.31,12.59 C56.1433333,12.1033333 56.06,11.5466667 56.06,10.92 Z M54.26,10.92 C54.26,11.68 54.3666667,12.3866667 54.58,13.04 C54.7933333,13.6933333 55.1133333,14.2633333 55.54,14.75 C55.9666667,15.2366667 56.4933333,15.6166667 57.12,15.89 C57.7466667,16.1633333 58.4666667,16.3 59.28,16.3 C60.1066667,16.3 60.83,16.1633333 61.45,15.89 C62.07,15.6166667 62.5933333,15.2366667 63.02,14.75 C63.4466667,14.2633333 63.7666667,13.6933333 63.98,13.04 C64.1933333,12.3866667 64.3,11.68 64.3,10.92 C64.3,10.16 64.1933333,9.45 63.98,8.79 C63.7666667,8.13 63.4466667,7.55666667 63.02,7.07 C62.5933333,6.58333333 62.07,6.2 61.45,5.92 C60.83,5.64 60.1066667,5.5 59.28,5.5 C58.4666667,5.5 57.7466667,5.64 57.12,5.92 C56.4933333,6.2 55.9666667,6.58333333 55.54,7.07 C55.1133333,7.55666667 54.7933333,8.13 54.58,8.79 C54.3666667,9.45 54.26,10.16 54.26,10.92 Z" id="Shape"></path>
            <path d="M66.95,5.74 L66.95,16.08 L68.65,16.08 L68.65,11.48 C68.65,10.8133333 68.7166667,10.2233333 68.85,9.71 C68.9833333,9.19666667 69.1966667,8.76 69.49,8.4 C69.7833333,8.04 70.17,7.76666667 70.65,7.58 C71.13,7.39333333 71.71,7.3 72.39,7.3 L72.39,5.5 C71.47,5.47333333 70.71,5.66 70.11,6.06 C69.51,6.46 69.0033333,7.08 68.59,7.92 L68.55,7.92 L68.55,5.74 L66.95,5.74 Z" id="Path"></path>
            <path d="M76.74,5.74 L76.74,2.64 L75.04,2.64 L75.04,5.74 L73.28,5.74 L73.28,7.24 L75.04,7.24 L75.04,13.82 C75.04,14.3 75.0866667,14.6866667 75.18,14.98 C75.2733333,15.2733333 75.4166667,15.5 75.61,15.66 C75.8033333,15.82 76.0566667,15.93 76.37,15.99 C76.6833333,16.05 77.06,16.08 77.5,16.08 L78.8,16.08 L78.8,14.58 L78.02,14.58 C77.7533333,14.58 77.5366667,14.57 77.37,14.55 C77.2033333,14.53 77.0733333,14.4866667 76.98,14.42 C76.8866667,14.3533333 76.8233333,14.26 76.79,14.14 C76.7566667,14.02 76.74,13.86 76.74,13.66 L76.74,7.24 L78.8,7.24 L78.8,5.74 L76.74,5.74 Z" id="Path"></path>
            <path d="M88.57,9.92 L82.63,9.92 C82.6566667,9.52 82.7433333,9.14333333 82.89,8.79 C83.0366667,8.43666667 83.2366667,8.12666667 83.49,7.86 C83.7433333,7.59333333 84.0466667,7.38333333 84.4,7.23 C84.7533333,7.07666667 85.15,7 85.59,7 C86.0166667,7 86.4066667,7.07666667 86.76,7.23 C87.1133333,7.38333333 87.42,7.59 87.68,7.85 C87.94,8.11 88.1466667,8.42 88.3,8.78 C88.4533333,9.14 88.5433333,9.52 88.57,9.92 Z M90.21,12.8 L88.53,12.8 C88.3833333,13.48 88.08,13.9866667 87.62,14.32 C87.16,14.6533333 86.57,14.82 85.85,14.82 C85.29,14.82 84.8033333,14.7266667 84.39,14.54 C83.9766667,14.3533333 83.6366667,14.1033333 83.37,13.79 C83.1033333,13.4766667 82.91,13.1166667 82.79,12.71 C82.67,12.3033333 82.6166667,11.8733333 82.63,11.42 L90.37,11.42 C90.3966667,10.7933333 90.34,10.1333333 90.2,9.44 C90.06,8.74666667 89.8066667,8.10666667 89.44,7.52 C89.0733333,6.93333333 88.5866667,6.45 87.98,6.07 C87.3733333,5.69 86.61,5.5 85.69,5.5 C84.9833333,5.5 84.3333333,5.63333333 83.74,5.9 C83.1466667,6.16666667 82.6333333,6.54 82.2,7.02 C81.7666667,7.5 81.43,8.06666667 81.19,8.72 C80.95,9.37333333 80.83,10.0933333 80.83,10.88 C80.8566667,11.6666667 80.9733333,12.3933333 81.18,13.06 C81.3866667,13.7266667 81.6966667,14.3 82.11,14.78 C82.5233333,15.26 83.0333333,15.6333333 83.64,15.9 C84.2466667,16.1666667 84.9633333,16.3 85.79,16.3 C86.9633333,16.3 87.9366667,16.0066667 88.71,15.42 C89.4833333,14.8333333 89.9833333,13.96 90.21,12.8 Z" id="Shape"></path>
            <polygon id="Path" points="92.94 1.8 92.94 16.08 94.64 16.08 94.64 1.8"></polygon>
            <path d="M107.15,16.04 C106.856667,16.2133333 106.45,16.3 105.93,16.3 C105.49,16.3 105.14,16.1766667 104.88,15.93 C104.62,15.6833333 104.49,15.28 104.49,14.72 C104.023333,15.28 103.48,15.6833333 102.86,15.93 C102.24,16.1766667 101.57,16.3 100.85,16.3 C100.383333,16.3 99.94,16.2466667 99.52,16.14 C99.1,16.0333333 98.7366667,15.8666667 98.43,15.64 C98.1233333,15.4133333 97.88,15.1166667 97.7,14.75 C97.52,14.3833333 97.43,13.94 97.43,13.42 C97.43,12.8333333 97.53,12.3533333 97.73,11.98 C97.93,11.6066667 98.1933333,11.3033333 98.52,11.07 C98.8466667,10.8366667 99.22,10.66 99.64,10.54 C100.06,10.42 100.49,10.32 100.93,10.24 C101.396667,10.1466667 101.84,10.0766667 102.26,10.03 C102.68,9.98333333 103.05,9.91666667 103.37,9.83 C103.69,9.74333333 103.943333,9.61666667 104.13,9.45 C104.316667,9.28333333 104.41,9.04 104.41,8.72 C104.41,8.34666667 104.34,8.04666667 104.2,7.82 C104.06,7.59333333 103.88,7.42 103.66,7.3 C103.44,7.18 103.193333,7.1 102.92,7.06 C102.646667,7.02 102.376667,7 102.11,7 C101.39,7 100.79,7.13666667 100.31,7.41 C99.83,7.68333333 99.57,8.2 99.53,8.96 L97.83,8.96 C97.8566667,8.32 97.99,7.78 98.23,7.34 C98.47,6.9 98.79,6.54333333 99.19,6.27 C99.59,5.99666667 100.046667,5.8 100.56,5.68 C101.073333,5.56 101.623333,5.5 102.21,5.5 C102.676667,5.5 103.14,5.53333333 103.6,5.6 C104.06,5.66666667 104.476667,5.80333333 104.85,6.01 C105.223333,6.21666667 105.523333,6.50666667 105.75,6.88 C105.976667,7.25333333 106.09,7.74 106.09,8.34 L106.09,13.66 C106.09,14.06 106.113333,14.3533333 106.16,14.54 C106.206667,14.7266667 106.363333,14.82 106.63,14.82 C106.776667,14.82 106.95,14.7866667 107.15,14.72 L107.15,16.04 Z M104.39,10.74 C104.176667,10.9 103.896667,11.0166667 103.55,11.09 C103.203333,11.1633333 102.84,11.2233333 102.46,11.27 C102.08,11.3166667 101.696667,11.37 101.31,11.43 C100.923333,11.49 100.576667,11.5866667 100.27,11.72 C99.9633333,11.8533333 99.7133333,12.0433333 99.52,12.29 C99.3266667,12.5366667 99.23,12.8733333 99.23,13.3 C99.23,13.58 99.2866667,13.8166667 99.4,14.01 C99.5133333,14.2033333 99.66,14.36 99.84,14.48 C100.02,14.6 100.23,14.6866667 100.47,14.74 C100.71,14.7933333 100.963333,14.82 101.23,14.82 C101.79,14.82 102.27,14.7433333 102.67,14.59 C103.07,14.4366667 103.396667,14.2433333 103.65,14.01 C103.903333,13.7766667 104.09,13.5233333 104.21,13.25 C104.33,12.9766667 104.39,12.72 104.39,12.48 L104.39,10.74 Z" id="Shape"></path>
            <polygon id="Path" points="115.97 0.36 115.97 20.34 117.33 20.34 117.33 0.36"></polygon>
            <path d="M130.85,16.3 C129.596667,16.3 128.583333,15.9766667 127.81,15.33 C127.036667,14.6833333 126.603333,13.7666667 126.51,12.58 L128.25,12.58 C128.53,14.1133333 129.41,14.88 130.89,14.88 C131.81,14.88 132.553333,14.5833333 133.12,13.99 C133.686667,13.3966667 134.003333,12.5333333 134.07,11.4 L129.75,11.4 L129.75,10.02 L134.05,10.02 C133.903333,9.04666667 133.573333,8.28666667 133.06,7.74 C132.546667,7.19333333 131.823333,6.92 130.89,6.92 C129.57,6.92 128.723333,7.54666667 128.35,8.8 L126.59,8.8 C126.776667,7.72 127.24,6.9 127.98,6.34 C128.72,5.78 129.696667,5.5 130.91,5.5 C131.67,5.5 132.356667,5.61666667 132.97,5.85 C133.583333,6.08333333 134.103333,6.42666667 134.53,6.88 C134.956667,7.33333333 135.286667,7.88333333 135.52,8.53 C135.753333,9.17666667 135.87,9.92 135.87,10.76 C135.87,11.6 135.76,12.3633333 135.54,13.05 C135.32,13.7366667 134.993333,14.32 134.56,14.8 C134.126667,15.28 133.6,15.65 132.98,15.91 C132.36,16.17 131.65,16.3 130.85,16.3 Z" id="Path"></path>
            <path d="M138.64,5.74 L140.34,5.74 L140.34,7.14 L140.38,7.14 C140.66,6.56666667 141.1,6.15 141.7,5.89 C142.3,5.63 142.96,5.5 143.68,5.5 C144.48,5.5 145.176667,5.64666667 145.77,5.94 C146.363333,6.23333333 146.856667,6.63 147.25,7.13 C147.643333,7.63 147.94,8.20666667 148.14,8.86 C148.34,9.51333333 148.44,10.2066667 148.44,10.94 C148.44,11.6866667 148.343333,12.3833333 148.15,13.03 C147.956667,13.6766667 147.663333,14.2433333 147.27,14.73 C146.876667,15.2166667 146.383333,15.6 145.79,15.88 C145.196667,16.16 144.506667,16.3 143.72,16.3 C143.453333,16.3 143.166667,16.2733333 142.86,16.22 C142.553333,16.1666667 142.246667,16.08 141.94,15.96 C141.633333,15.84 141.343333,15.6766667 141.07,15.47 C140.796667,15.2633333 140.566667,15.0066667 140.38,14.7 L140.34,14.7 L140.34,20.02 L138.64,20.02 L138.64,5.74 Z M143.54,14.82 C144.113333,14.82 144.6,14.7066667 145,14.48 C145.4,14.2533333 145.72,13.9533333 145.96,13.58 C146.2,13.2066667 146.373333,12.78 146.48,12.3 C146.586667,11.82 146.64,11.3266667 146.64,10.82 C146.64,10.34 146.576667,9.87 146.45,9.41 C146.323333,8.95 146.13,8.54 145.87,8.18 C145.61,7.82 145.276667,7.53333333 144.87,7.32 C144.463333,7.10666667 143.986667,7 143.44,7 C142.866667,7 142.38,7.11333333 141.98,7.34 C141.58,7.56666667 141.253333,7.86333333 141,8.23 C140.746667,8.59666667 140.563333,9.01333333 140.45,9.48 C140.336667,9.94666667 140.28,10.42 140.28,10.9 C140.28,11.4066667 140.34,11.8966667 140.46,12.37 C140.58,12.8433333 140.77,13.26 141.03,13.62 C141.29,13.98 141.626667,14.27 142.04,14.49 C142.453333,14.71 142.953333,14.82 143.54,14.82 Z" id="Shape"></path>
            <polygon id="Path" points="151.15 5.74 152.85 5.74 152.85 14.18 157.73 5.74 159.91 5.74 159.91 16.08 158.21 16.08 158.21 7.64 153.33 16.08 151.15 16.08"></polygon>
            <polygon id="Path" points="163.18 5.74 164.88 5.74 164.88 10.68 169.62 5.74 171.88 5.74 167.3 10.22 172.42 16.08 170.24 16.08 165.92 11.16 164.88 12.18 164.88 16.08 163.18 16.08"></polygon>
            <polygon id="Path" points="180.68 5.74 189.12 5.74 189.12 16.08 187.42 16.08 187.42 7.24 182.38 7.24 182.38 16.08 180.68 16.08"></polygon>
            <path d="M196.85,16.3 C196.023333,16.3 195.3,16.1633333 194.68,15.89 C194.06,15.6166667 193.536667,15.2366667 193.11,14.75 C192.683333,14.2633333 192.363333,13.6933333 192.15,13.04 C191.936667,12.3866667 191.83,11.68 191.83,10.92 C191.83,10.16 191.936667,9.45 192.15,8.79 C192.363333,8.13 192.683333,7.55666667 193.11,7.07 C193.536667,6.58333333 194.06,6.2 194.68,5.92 C195.3,5.64 196.023333,5.5 196.85,5.5 C197.663333,5.5 198.383333,5.64 199.01,5.92 C199.636667,6.2 200.163333,6.58333333 200.59,7.07 C201.016667,7.55666667 201.336667,8.13 201.55,8.79 C201.763333,9.45 201.87,10.16 201.87,10.92 C201.87,11.68 201.763333,12.3866667 201.55,13.04 C201.336667,13.6933333 201.016667,14.2633333 200.59,14.75 C200.163333,15.2366667 199.636667,15.6166667 199.01,15.89 C198.383333,16.1633333 197.663333,16.3 196.85,16.3 Z M196.85,14.82 C197.29,14.82 197.706667,14.7333333 198.1,14.56 C198.493333,14.3866667 198.836667,14.1366667 199.13,13.81 C199.423333,13.4833333 199.653333,13.0766667 199.82,12.59 C199.986667,12.1033333 200.07,11.5466667 200.07,10.92 C200.07,10.2933333 199.986667,9.73666667 199.82,9.25 C199.653333,8.76333333 199.423333,8.35333333 199.13,8.02 C198.836667,7.68666667 198.493333,7.43333333 198.1,7.26 C197.706667,7.08666667 197.29,7 196.85,7 C196.41,7 195.993333,7.08666667 195.6,7.26 C195.206667,7.43333333 194.863333,7.68666667 194.57,8.02 C194.276667,8.35333333 194.046667,8.76333333 193.88,9.25 C193.713333,9.73666667 193.63,10.2933333 193.63,10.92 C193.63,11.5466667 193.713333,12.1033333 193.88,12.59 C194.046667,13.0766667 194.276667,13.4833333 194.57,13.81 C194.863333,14.1366667 195.206667,14.3866667 195.6,14.56 C195.993333,14.7333333 196.41,14.82 196.85,14.82 Z" id="Shape"></path>
            <path d="M204.64,5.74 L206.34,5.74 L206.34,7.14 L206.38,7.14 C206.66,6.56666667 207.1,6.15 207.7,5.89 C208.3,5.63 208.96,5.5 209.68,5.5 C210.48,5.5 211.176667,5.64666667 211.77,5.94 C212.363333,6.23333333 212.856667,6.63 213.25,7.13 C213.643333,7.63 213.94,8.20666667 214.14,8.86 C214.34,9.51333333 214.44,10.2066667 214.44,10.94 C214.44,11.6866667 214.343333,12.3833333 214.15,13.03 C213.956667,13.6766667 213.663333,14.2433333 213.27,14.73 C212.876667,15.2166667 212.383333,15.6 211.79,15.88 C211.196667,16.16 210.506667,16.3 209.72,16.3 C209.453333,16.3 209.166667,16.2733333 208.86,16.22 C208.553333,16.1666667 208.246667,16.08 207.94,15.96 C207.633333,15.84 207.343333,15.6766667 207.07,15.47 C206.796667,15.2633333 206.566667,15.0066667 206.38,14.7 L206.34,14.7 L206.34,20.02 L204.64,20.02 L204.64,5.74 Z M209.54,14.82 C210.113333,14.82 210.6,14.7066667 211,14.48 C211.4,14.2533333 211.72,13.9533333 211.96,13.58 C212.2,13.2066667 212.373333,12.78 212.48,12.3 C212.586667,11.82 212.64,11.3266667 212.64,10.82 C212.64,10.34 212.576667,9.87 212.45,9.41 C212.323333,8.95 212.13,8.54 211.87,8.18 C211.61,7.82 211.276667,7.53333333 210.87,7.32 C210.463333,7.10666667 209.986667,7 209.44,7 C208.866667,7 208.38,7.11333333 207.98,7.34 C207.58,7.56666667 207.253333,7.86333333 207,8.23 C206.746667,8.59666667 206.563333,9.01333333 206.45,9.48 C206.336667,9.94666667 206.28,10.42 206.28,10.9 C206.28,11.4066667 206.34,11.8966667 206.46,12.37 C206.58,12.8433333 206.77,13.26 207.03,13.62 C207.29,13.98 207.626667,14.27 208.04,14.49 C208.453333,14.71 208.953333,14.82 209.54,14.82 Z" id="Shape"></path>
            <polygon id="Path" points="219.65 7.24 215.95 7.24 215.95 5.74 225.05 5.74 225.05 7.24 221.35 7.24 221.35 16.08 219.65 16.08"></polygon>
            <path d="M231.52,16.3 C230.693333,16.3 229.97,16.1666667 229.35,15.9 C228.73,15.6333333 228.213333,15.26 227.8,14.78 C227.386667,14.3 227.076667,13.7266667 226.87,13.06 C226.663333,12.3933333 226.56,11.6666667 226.56,10.88 C226.56,10.1066667 226.68,9.39 226.92,8.73 C227.16,8.07 227.496667,7.5 227.93,7.02 C228.363333,6.54 228.876667,6.16666667 229.47,5.9 C230.063333,5.63333333 230.713333,5.5 231.42,5.5 C232.34,5.5 233.103333,5.69 233.71,6.07 C234.316667,6.45 234.803333,6.93333333 235.17,7.52 C235.536667,8.10666667 235.79,8.74666667 235.93,9.44 C236.07,10.1333333 236.126667,10.7933333 236.1,11.42 L228.36,11.42 C228.346667,11.8733333 228.4,12.3033333 228.52,12.71 C228.64,13.1166667 228.833333,13.4766667 229.1,13.79 C229.366667,14.1033333 229.706667,14.3533333 230.12,14.54 C230.533333,14.7266667 231.02,14.82 231.58,14.82 C232.3,14.82 232.89,14.6533333 233.35,14.32 C233.81,13.9866667 234.113333,13.48 234.26,12.8 L235.94,12.8 C235.713333,13.9733333 235.213333,14.85 234.44,15.43 C233.666667,16.01 232.693333,16.3 231.52,16.3 Z M234.3,9.92 C234.273333,9.52 234.183333,9.14 234.03,8.78 C233.876667,8.42 233.67,8.11 233.41,7.85 C233.15,7.59 232.843333,7.38333333 232.49,7.23 C232.136667,7.07666667 231.746667,7 231.32,7 C230.88,7 230.483333,7.07666667 230.13,7.23 C229.776667,7.38333333 229.473333,7.59333333 229.22,7.86 C228.966667,8.12666667 228.766667,8.43666667 228.62,8.79 C228.473333,9.14333333 228.386667,9.52 228.36,9.92 L234.3,9.92 Z" id="Shape"></path>
            <path d="M238.49,16.2 C238.316667,16.2 238.136667,16.1833333 237.95,16.15 C237.763333,16.1166667 237.61,16.0866667 237.49,16.06 L237.49,14.56 C237.623333,14.6 237.746667,14.6266667 237.86,14.64 C237.973333,14.6533333 238.083333,14.66 238.19,14.66 C238.63,14.66 238.966667,14.4866667 239.2,14.14 C239.433333,13.7933333 239.606667,13.26 239.72,12.54 C239.833333,11.82 239.903333,10.8966667 239.93,9.77 C239.956667,8.64333333 239.983333,7.3 240.01,5.74 L247.27,5.74 L247.27,16.08 L245.57,16.08 L245.57,7.24 L241.65,7.24 C241.61,8.45333333 241.566667,9.60333333 241.52,10.69 C241.473333,11.7766667 241.356667,12.7266667 241.17,13.54 C240.983333,14.3533333 240.683333,15 240.27,15.48 C239.856667,15.96 239.263333,16.2 238.49,16.2 Z" id="Path"></path>
            <path d="M253.4,16.3 C252.933333,16.3 252.493333,16.25 252.08,16.15 C251.666667,16.05 251.303333,15.8833333 250.99,15.65 C250.676667,15.4166667 250.43,15.1166667 250.25,14.75 C250.07,14.3833333 249.98,13.94 249.98,13.42 C249.98,12.8333333 250.08,12.3533333 250.28,11.98 C250.48,11.6066667 250.743333,11.3033333 251.07,11.07 C251.396667,10.8366667 251.77,10.66 252.19,10.54 C252.61,10.42 253.04,10.32 253.48,10.24 C253.946667,10.1466667 254.39,10.0766667 254.81,10.03 C255.23,9.98333333 255.6,9.91666667 255.92,9.83 C256.24,9.74333333 256.493333,9.61666667 256.68,9.45 C256.866667,9.28333333 256.96,9.04 256.96,8.72 C256.96,8.34666667 256.89,8.04666667 256.75,7.82 C256.61,7.59333333 256.43,7.42 256.21,7.3 C255.99,7.18 255.743333,7.1 255.47,7.06 C255.196667,7.02 254.926667,7 254.66,7 C253.94,7 253.34,7.13666667 252.86,7.41 C252.38,7.68333333 252.12,8.2 252.08,8.96 L250.38,8.96 C250.406667,8.32 250.54,7.78 250.78,7.34 C251.02,6.9 251.34,6.54333333 251.74,6.27 C252.14,5.99666667 252.596667,5.8 253.11,5.68 C253.623333,5.56 254.173333,5.5 254.76,5.5 C255.226667,5.5 255.69,5.53333333 256.15,5.6 C256.61,5.66666667 257.026667,5.80333333 257.4,6.01 C257.773333,6.21666667 258.073333,6.50666667 258.3,6.88 C258.526667,7.25333333 258.64,7.74 258.64,8.34 L258.64,13.66 C258.64,14.06 258.663333,14.3533333 258.71,14.54 C258.756667,14.7266667 258.913333,14.82 259.18,14.82 C259.3,14.82 259.473333,14.7866667 259.7,14.72 L259.7,16.04 C259.406667,16.2133333 259,16.3 258.48,16.3 C258.04,16.3 257.69,16.1766667 257.43,15.93 C257.17,15.6833333 257.04,15.28 257.04,14.72 C256.573333,15.28 256.03,15.6833333 255.41,15.93 C254.79,16.1766667 254.12,16.3 253.4,16.3 Z M253.78,14.82 C254.34,14.82 254.82,14.7433333 255.22,14.59 C255.62,14.4366667 255.946667,14.2433333 256.2,14.01 C256.453333,13.7766667 256.64,13.5233333 256.76,13.25 C256.88,12.9766667 256.94,12.72 256.94,12.48 L256.94,10.74 C256.726667,10.9133333 256.446667,11.0333333 256.1,11.1 C255.753333,11.1666667 255.39,11.2266667 255.01,11.28 C254.63,11.3333333 254.246667,11.3866667 253.86,11.44 C253.473333,11.4933333 253.126667,11.5866667 252.82,11.72 C252.513333,11.8533333 252.263333,12.0433333 252.07,12.29 C251.876667,12.5366667 251.78,12.8733333 251.78,13.3 C251.78,13.58 251.836667,13.8166667 251.95,14.01 C252.063333,14.2033333 252.21,14.36 252.39,14.48 C252.57,14.6 252.78,14.6866667 253.02,14.74 C253.26,14.7933333 253.513333,14.82 253.78,14.82 Z" id="Shape"></path>
            <polygon id="Path" points="268.52 0.36 268.52 20.34 269.88 20.34 269.88 0.36"></polygon>
            <path d="M295.24,5.26 L295.24,3.98 L292.58,3.98 L292.58,0 L291.06,0 L291.06,9.76 L292.58,9.76 L292.58,5.26 L295.24,5.26 Z M292.58,17.1 L292.58,10.84 L281.52,10.84 L281.52,17.1 L292.58,17.1 Z M291.06,15.84 L283.04,15.84 L283.04,12.1 L291.06,12.1 L291.06,15.84 Z M289.52,6.62 C287.48,7.08 284.14,7.44 281.22,7.38 L281.22,1.02 L279.7,1.02 L279.7,8.68 L281.24,8.68 C284.02,8.68 287.64,8.32 289.66,7.88 L289.52,6.62 Z" id="Shape"></path>
            <path d="M301.29,1.52 C298.75,1.52 297.45,4 297.45,7.5 C297.45,11.02 298.75,13.48 301.29,13.48 C303.69,13.48 304.97,11.34 305.13,8.18 L307.01,8.18 L307.01,16.64 L308.49,16.64 L308.49,0.34 L307.01,0.34 L307.01,6.92 L305.13,6.92 C305.01,3.74 303.71,1.52 301.29,1.52 Z M303.63,7.5 C303.63,10.34 302.71,12.14 301.29,12.14 C299.89,12.14 298.99,10.34 298.99,7.5 C298.99,4.68 299.89,2.86 301.29,2.86 C302.71,2.86 303.63,4.68 303.63,7.5 Z M311.91,17.48 L311.91,0 L310.41,0 L310.41,17.48 L311.91,17.48 Z" id="Shape"></path>
            <path d="M329.46,10.54 L329.46,0 L327.94,0 L327.94,10.54 L329.46,10.54 Z M317.82,11.48 L317.82,12.74 L327.94,12.74 L327.94,17.48 L329.48,17.48 L329.48,11.48 L317.82,11.48 Z M325.5,7.86 C323.68,8.24 320.32,8.34 317.58,8.34 L317.58,5.84 L323.88,5.84 L323.88,1.04 L315.98,1.04 L315.98,2.3 L322.36,2.3 L322.36,4.6 L316.06,4.6 L316.06,9.62 L318,9.62 C321.1,9.6 323.88,9.4 325.68,9.1 L325.5,7.86 Z" id="Shape"></path>
        </g>
    </g>
</svg>